<svg xmlns="http://www.w3.org/2000/svg" width="125.571" height="113.825" viewBox="0 0 125.571 113.825">
  <g id="ilustracao-aviso" transform="translate(0 -23.946)">
    <path id="Path_855" data-name="Path 855" d="M225.766,33.436,269.6,109.363a18.946,18.946,0,0,1-16.417,28.408H209.348L194.189,80.859l15.159-56.913A18.937,18.937,0,0,1,225.766,33.436Z" transform="translate(-146.563)" fill="#3b4145"/>
    <path id="Path_856" data-name="Path 856" d="M46.368,33.436,2.532,109.363a18.946,18.946,0,0,0,16.418,28.408H62.785V23.946A18.937,18.937,0,0,0,46.368,33.436Z" fill="#525a61"/>
    <path id="Path_857" data-name="Path 857" d="M310.693,136.5,266.857,60.573a11.408,11.408,0,0,0-9.528-5.695l37.492,98.66h6.018a11.367,11.367,0,0,0,9.853-17.039Z" transform="translate(-194.218 -23.346)" fill="#ffb751"/>
    <path id="Path_858" data-name="Path 858" d="M132.429,136.476a12.764,12.764,0,0,1,1.309,5.67c0,6.268-4.4,11.37-9.808,11.37H42.276a11.368,11.368,0,0,1-9.854-17.039L76.258,60.549a11.418,11.418,0,0,1,9.854-5.7q.163,0,.326.008a9.748,9.748,0,0,1,8.173,5.695Z" transform="translate(-23.326 -23.322)" fill="#ffd764"/>
    <path id="Path_859" data-name="Path 859" d="M256,354.131v12.633a6.316,6.316,0,1,0,0-12.633Z" transform="translate(-193.215 -249.205)" fill="#3b4145"/>
    <path id="Path_860" data-name="Path 860" d="M236.562,354.131c.7,0,1.263,2.827,1.263,6.317s-.566,6.317-1.263,6.317a6.317,6.317,0,1,1,0-12.633Z" transform="translate(-173.776 -249.205)" fill="#525a61"/>
    <path id="Path_861" data-name="Path 861" d="M256,132.646v46.742a6.317,6.317,0,0,0,6.317-6.317V138.963A6.316,6.316,0,0,0,256,132.646Z" transform="translate(-193.215 -82.041)" fill="#3b4145"/>
    <path id="Path_862" data-name="Path 862" d="M236.562,132.646c.7,0,1.263,2.827,1.263,6.317v34.109c0,3.487-.566,6.317-1.263,6.317a6.317,6.317,0,0,1-6.317-6.317V138.963A6.316,6.316,0,0,1,236.562,132.646Z" transform="translate(-173.776 -82.041)" fill="#525a61"/>
  </g>
</svg>
