<svg xmlns="http://www.w3.org/2000/svg" width="90.135" height="108.885" viewBox="0 0 90.135 108.885">
  <g id="ilustracao-documento-ok" transform="translate(-22 -161)">
    <g id="Group_869" data-name="Group 869" transform="translate(-819.89 564)">
      <rect id="Rectangle_1989" data-name="Rectangle 1989" width="70.5" height="105.398" transform="translate(841.89 -403)" fill="#bcd9b7"/>
      <rect id="Rectangle_1990" data-name="Rectangle 1990" width="66.925" height="6.885" transform="translate(841.89 -403)" fill="#1a2537"/>
      <rect id="Rectangle_1991" data-name="Rectangle 1991" width="3.771" height="105.398" transform="translate(841.89 -403)" fill="#1a2537"/>
      <rect id="Rectangle_1992" data-name="Rectangle 1992" width="6.374" height="6.374" transform="translate(849.01 -390.642)" fill="none" stroke="#1a2537" stroke-miterlimit="10" stroke-width="0.5"/>
      <rect id="Rectangle_1993" data-name="Rectangle 1993" width="6.374" height="6.374" transform="translate(902.442 -390.642)" fill="none" stroke="#1a2537" stroke-miterlimit="10" stroke-width="0.5"/>
      <rect id="Rectangle_1994" data-name="Rectangle 1994" width="24.233" height="6.374" transform="translate(856.411 -390.642)" fill="none" stroke="#1a2537" stroke-miterlimit="10" stroke-width="0.5"/>
      <rect id="Rectangle_1995" data-name="Rectangle 1995" width="32.661" height="6.374" transform="translate(849.01 -365.507)" fill="none" stroke="#1a2537" stroke-miterlimit="10" stroke-width="0.5"/>
      <rect id="Rectangle_1996" data-name="Rectangle 1996" width="24.849" height="6.374" transform="translate(883.966 -365.507)" fill="none" stroke="#1a2537" stroke-miterlimit="10" stroke-width="0.5"/>
      <rect id="Rectangle_1997" data-name="Rectangle 1997" width="59.805" height="13.89" transform="translate(849.01 -381.832)" fill="none" stroke="#1a2537" stroke-miterlimit="10" stroke-width="0.5"/>
      <rect id="Rectangle_1998" data-name="Rectangle 1998" width="18.66" height="6.374" transform="translate(882.726 -390.642)" fill="none" stroke="#1a2537" stroke-miterlimit="10" stroke-width="0.5"/>
      <rect id="Rectangle_1999" data-name="Rectangle 1999" width="6.374" height="6.374" transform="translate(849.01 -356.697)" fill="none" stroke="#1a2537" stroke-miterlimit="10" stroke-width="0.5"/>
      <rect id="Rectangle_2000" data-name="Rectangle 2000" width="6.374" height="6.374" transform="translate(902.442 -356.697)" fill="none" stroke="#1a2537" stroke-miterlimit="10" stroke-width="0.5"/>
      <rect id="Rectangle_2001" data-name="Rectangle 2001" width="24.233" height="6.374" transform="translate(856.411 -356.697)" fill="none" stroke="#1a2537" stroke-miterlimit="10" stroke-width="0.5"/>
      <rect id="Rectangle_2002" data-name="Rectangle 2002" width="32.661" height="6.374" transform="translate(849.01 -331.562)" fill="none" stroke="#1a2537" stroke-miterlimit="10" stroke-width="0.5"/>
      <rect id="Rectangle_2003" data-name="Rectangle 2003" width="24.849" height="6.374" transform="translate(883.966 -331.562)" fill="none" stroke="#1a2537" stroke-miterlimit="10" stroke-width="0.5"/>
      <rect id="Rectangle_2004" data-name="Rectangle 2004" width="59.805" height="13.89" transform="translate(849.01 -347.888)" fill="none" stroke="#1a2537" stroke-miterlimit="10" stroke-width="0.5"/>
      <rect id="Rectangle_2005" data-name="Rectangle 2005" width="18.66" height="6.374" transform="translate(882.726 -356.697)" fill="none" stroke="#1a2537" stroke-miterlimit="10" stroke-width="0.5"/>
      <rect id="Rectangle_2006" data-name="Rectangle 2006" width="6.374" height="6.374" transform="translate(849.01 -320.182)" fill="none" stroke="#1a2537" stroke-miterlimit="10" stroke-width="0.5"/>
      <rect id="Rectangle_2007" data-name="Rectangle 2007" width="6.374" height="6.374" transform="translate(902.442 -320.182)" fill="none" stroke="#1a2537" stroke-miterlimit="10" stroke-width="0.5"/>
      <rect id="Rectangle_2008" data-name="Rectangle 2008" width="24.233" height="6.374" transform="translate(856.411 -320.182)" fill="none" stroke="#1a2537" stroke-miterlimit="10" stroke-width="0.5"/>
      <rect id="Rectangle_2009" data-name="Rectangle 2009" width="59.805" height="3.565" transform="translate(849.01 -311.373)" fill="none" stroke="#1a2537" stroke-miterlimit="10" stroke-width="0.5"/>
      <rect id="Rectangle_2010" data-name="Rectangle 2010" width="43.37" height="4.674" transform="translate(849.01 -305.372)" fill="none" stroke="#1a2537" stroke-miterlimit="10" stroke-width="0.5"/>
      <rect id="Rectangle_2011" data-name="Rectangle 2011" width="15.139" height="4.674" transform="translate(893.676 -305.372)" fill="none" stroke="#1a2537" stroke-miterlimit="10" stroke-width="0.5"/>
      <rect id="Rectangle_2012" data-name="Rectangle 2012" width="18.66" height="6.374" transform="translate(882.726 -320.182)" fill="none" stroke="#1a2537" stroke-miterlimit="10" stroke-width="0.5"/>
    </g>
    <g id="Group_876" data-name="Group 876" transform="translate(0 -4)">
      <ellipse id="Ellipse_158" data-name="Ellipse 158" cx="19.511" cy="19.511" rx="19.511" ry="19.511" transform="translate(73.114 234.864)" fill="#4caf50"/>
      <path id="Path_914" data-name="Path 914" d="M328.969,81.637a1.773,1.773,0,0,1-1.256-.518l-7.095-7.095a1.774,1.774,0,0,1,2.508-2.508l5.843,5.839L341.9,64.421a1.774,1.774,0,1,1,2.552,2.464l-.044.044-14.19,14.19A1.773,1.773,0,0,1,328.969,81.637Z" transform="translate(-239.891 181.607)" fill="#fafafa"/>
    </g>
  </g>
</svg>
