<svg xmlns="http://www.w3.org/2000/svg" width="154.374" height="92.437" viewBox="0 0 154.374 92.437">
  <g id="ilustracao-notebook-boleto" transform="translate(-142 -279)">
    <g id="_7dtGBz" data-name="7dtGBz" transform="translate(142 279)">
      <g id="Group_826" data-name="Group 826" transform="translate(0)">
        <path id="Path_816" data-name="Path 816" d="M-704.637,308.615H-829.876a3.642,3.642,0,0,1-2.35-3.233,10.761,10.761,0,0,1-.245-2.434,33.711,33.711,0,0,1,.1-4.113c.338-.474.858-.411,1.335-.431,1.164-.048,2.33-.01,3.495-.03a1.255,1.255,0,0,0,1.4-1.389c.011-.563.013-1.126.013-1.69q0-31.149,0-62.3a13.072,13.072,0,0,1,.759-4.864,8.741,8.741,0,0,1,8.382-5.72q23.058-.027,46.117-.008c2.732,0,2.737-.007,2.741-2.781,0-.676.015-1.352.018-2.027a1.561,1.561,0,0,1,.744-1.42h88.682a1.055,1.055,0,0,1,.564,1.215q0,31.361,0,62.718c-.183,1.538-.531,1.907-2.034,1.955-2.4.076-4.805.027-7.208.029q-9.8.008-19.6,0c-1.89,0-2.095.2-2.1,2.044q-.012,6.189,0,12.379c.006,1.581.268,1.833,1.831,1.86,1.351.023,2.7-.042,4.054.04,1.152.07,1.449.368,1.521,1.514a13.547,13.547,0,0,1-.844,6.185A4.381,4.381,0,0,1-704.637,308.615Z" transform="translate(832.485 -216.178)" fill="#4e4e4e"/>
        <path id="Path_817" data-name="Path 817" d="M-488.882,286.624q-20.134,0-40.268.023c-.938,0-1.169-.227-1.168-1.166q.045-28.569,0-57.138c0-.99.231-1.238,1.231-1.236q34.629.047,69.257.022c3.721,0,7.443,0,11.164-.074.963-.019,1.156.284,1.154,1.2q-.041,28.569.008,57.138c0,1.1-.371,1.256-1.333,1.254Q-468.86,286.6-488.882,286.624Z" transform="translate(598.57 -224.597)" fill="#fff"/>
        <path id="Path_818" data-name="Path 818" d="M-715.519,346.427h-44.9c-2.953,0-4.4-1.462-4.4-4.444q0-26.825,0-53.65c0-2.893,1.467-4.357,4.366-4.357q22,0,44-.023c1,0,1.3.211,1.3,1.265q-.057,23.105-.026,46.211c0,2.12.47,2.6,2.564,2.6q22.562,0,45.123-.019c.969,0,1.361.158,1.317,1.25-.1,2.363-.023,4.732-.031,7.1a3.78,3.78,0,0,1-4.073,4.069Q-692.9,346.43-715.519,346.427Z" transform="translate(780.101 -268.644)" fill="#fff"/>
        <path id="Path_819" data-name="Path 819" d="M-584.229,593.316c2.481,0,4.963-.007,7.443,0A2.493,2.493,0,0,1-574,595.753a2.532,2.532,0,0,1-2.753,2.511q-7.556.035-15.113,0a2.547,2.547,0,0,1-2.729-2.534,2.525,2.525,0,0,1,2.81-2.411C-589.267,593.31-586.748,593.316-584.229,593.316Z" transform="translate(648.328 -508.128)" fill="#fff"/>
        <path id="Path_836" data-name="Path 836" d="M-462.95,305.792a4.885,4.885,0,0,1,1.1.126.868.868,0,0,1,.623.952c-.045.469-.353.615-.77.639a11.489,11.489,0,0,1-1.226.075c-.526-.026-1.209.29-1.219-.773-.008-.948.419-1.059,1.152-.973a2.925,2.925,0,0,0,.336,0Z" transform="translate(547.574 -285.551)" fill="#fbfbfc"/>
        <path id="Path_837" data-name="Path 837" d="M-463.089,292.253a4.43,4.43,0,0,1-1-.015c-.379-.09-.288-.464-.295-.753-.009-.346.112-.572.509-.563.522.013,1.044,0,1.565.019.437.016.879.131.855.666-.026.561-.467.7-.963.695-.224,0-.448,0-.671,0Z" transform="translate(547.532 -274.038)" fill="#fcfcfd"/>
        <path id="Path_838" data-name="Path 838" d="M-419.341,290.282a2.486,2.486,0,0,1,2.514,2.6,2.556,2.556,0,0,1-2.427,2.7,2.6,2.6,0,0,1-2.656-2.624A2.52,2.52,0,0,1-419.341,290.282Z" transform="translate(514.648 -273.543)" fill="#fefefe"/>
        <path id="Path_839" data-name="Path 839" d="M-247.432,292.96a2.417,2.417,0,0,1-2.33,2.624,2.663,2.663,0,0,1-2.709-2.7,2.554,2.554,0,0,1,2.655-2.6A2.416,2.416,0,0,1-247.432,292.96Z" transform="translate(383.482 -273.544)" fill="#fefeff"/>
        <text id="Boleto" transform="translate(86.374 22.218)" fill="#455a64" font-size="17" font-family="Roboto-Bold, Roboto" font-weight="700"><tspan x="0" y="0">Boleto</tspan></text>
      </g>
    </g>
    <g id="Group_828" data-name="Group 828" transform="translate(226.912 308.02)">
      <g id="Rectangle_1983" data-name="Rectangle 1983" transform="translate(0.462 0.197)" fill="#fff" stroke="#707070" stroke-width="1">
        <rect width="50" height="28" rx="5" stroke="none"/>
        <rect x="0.5" y="0.5" width="49" height="27" rx="4.5" fill="none"/>
      </g>
      <g id="barcode" transform="translate(7.538 4.403)">
        <g id="Group_827" data-name="Group 827" transform="translate(0)">
          <path id="Path_840" data-name="Path 840" d="M65.077,147.435A1,1,0,0,1,64,146.552V128.883a1.1,1.1,0,0,1,2.154,0v17.668A1,1,0,0,1,65.077,147.435Z" transform="translate(-64 -128)" fill="#455a64"/>
          <path id="Path_841" data-name="Path 841" d="M107.743,144.075a1,1,0,0,1-1.077-.893V128.893a1.1,1.1,0,0,1,2.154,0v14.289A1,1,0,0,1,107.743,144.075Z" transform="translate(-102.357 -128)" fill="#455a64"/>
          <path id="Path_842" data-name="Path 842" d="M150.41,144.075a1,1,0,0,1-1.077-.893V128.893a1.1,1.1,0,0,1,2.154,0v14.289A1,1,0,0,1,150.41,144.075Z" transform="translate(-140.716 -128)" fill="#455a64"/>
          <path id="Path_843" data-name="Path 843" d="M193.077,144.075a1,1,0,0,1-1.077-.893V128.893a1.1,1.1,0,0,1,2.154,0v14.289A1,1,0,0,1,193.077,144.075Z" transform="translate(-179.074 -128)" fill="#455a64"/>
          <path id="Path_844" data-name="Path 844" d="M235.743,147.435a1,1,0,0,1-1.077-.883V128.883a1.1,1.1,0,0,1,2.154,0v17.668A1,1,0,0,1,235.743,147.435Z" transform="translate(-217.431 -128)" fill="#455a64"/>
          <path id="Path_845" data-name="Path 845" d="M278.41,144.075a1,1,0,0,1-1.077-.893V128.893a1.1,1.1,0,0,1,2.154,0v14.289A1,1,0,0,1,278.41,144.075Z" transform="translate(-255.789 -128)" fill="#455a64"/>
          <path id="Path_846" data-name="Path 846" d="M321.077,144.075a1,1,0,0,1-1.077-.893V128.893a1.1,1.1,0,0,1,2.154,0v14.289A1,1,0,0,1,321.077,144.075Z" transform="translate(-294.148 -128)" fill="#455a64"/>
          <path id="Path_847" data-name="Path 847" d="M363.743,144.075a1,1,0,0,1-1.077-.893V128.893a1.1,1.1,0,0,1,2.154,0v14.289A1,1,0,0,1,363.743,144.075Z" transform="translate(-332.505 -128)" fill="#455a64"/>
          <path id="Path_848" data-name="Path 848" d="M406.41,147.435a1,1,0,0,1-1.077-.883V128.883a1.1,1.1,0,0,1,2.154,0v17.668A1,1,0,0,1,406.41,147.435Z" transform="translate(-370.863 -128)" fill="#455a64"/>
          <path id="Path_849" data-name="Path 849" d="M107.741,343.541a.874.874,0,0,1-.409-.086.763.763,0,0,1-.345-.237,1.04,1.04,0,0,1-.037-1.471l.037-.037a.761.761,0,0,1,.345-.237,1.064,1.064,0,0,1,1.163.237,1.077,1.077,0,0,1-.754,1.831Z" transform="translate(-102.355 -324.105)" fill="#455a64"/>
          <path id="Path_850" data-name="Path 850" d="M150.408,343.527a.874.874,0,0,1-.409-.086.763.763,0,0,1-.345-.237,1.04,1.04,0,0,1-.037-1.471l.037-.037a.761.761,0,0,1,.345-.237,1.056,1.056,0,0,1,1.163.237.763.763,0,0,1,.237.345,1.015,1.015,0,0,1,0,.819.754.754,0,0,1-.237.345A1.009,1.009,0,0,1,150.408,343.527Z" transform="translate(-140.713 -324.091)" fill="#455a64"/>
          <path id="Path_851" data-name="Path 851" d="M193.075,343.527a.874.874,0,0,1-.409-.086.763.763,0,0,1-.345-.237,1.04,1.04,0,0,1-.037-1.471l.037-.037a.761.761,0,0,1,.345-.237,1.056,1.056,0,0,1,1.163.237.763.763,0,0,1,.237.345,1.015,1.015,0,0,1,0,.819.753.753,0,0,1-.237.345A1.009,1.009,0,0,1,193.075,343.527Z" transform="translate(-179.072 -324.091)" fill="#455a64"/>
          <path id="Path_852" data-name="Path 852" d="M278.545,343.624a1.071,1.071,0,1,1,.754-1.831.763.763,0,0,1,.237.345,1.015,1.015,0,0,1,0,.819.754.754,0,0,1-.237.345A1.008,1.008,0,0,1,278.545,343.624Z" transform="translate(-255.924 -324.189)" fill="#455a64"/>
          <path id="Path_853" data-name="Path 853" d="M321.212,343.624a1.077,1.077,0,1,1,.739-.308A1.077,1.077,0,0,1,321.212,343.624Z" transform="translate(-294.282 -324.188)" fill="#455a64"/>
          <path id="Path_854" data-name="Path 854" d="M363.743,343.624a1.008,1.008,0,0,1-.754-.323.752.752,0,0,1-.237-.345,1.015,1.015,0,0,1,0-.819.76.76,0,0,1,.237-.345,1.066,1.066,0,1,1,.754,1.831Z" transform="translate(-332.504 -324.188)" fill="#455a64"/>
        </g>
      </g>
    </g>
  </g>
</svg>
